<svg xmlns="http://www.w3.org/2000/svg" aria-hidden="true" style="position:absolute;width:0;height:0;overflow:hidden">
  <defs>
    <symbol id="icon-p" viewBox="0 0 24 32">
      <path d="M1.454.96c1.982.137 3.128 1.234 3.128 3.154v23.771c0 1.92-1.145 3.017-3.084 3.154L0 31.13v.869h12.511v-.869l-1.542-.091c-1.938-.091-3.128-1.326-3.128-3.291V17.737h4.89c7.577 0 11.63-4.846 11.63-9.554C24.361 3.886 20.969 0 14.229 0H0v.869L1.454.96zM11.982.823c5.507 0 8.414 3.886 8.414 8 0 4.069-2.819 8.137-8.326 8.137H7.841V.823h4.141z"/>
    </symbol>
    <symbol id="icon-a" viewBox="0 0 32 32">
      <path d="M4.402 27.474c-.793 1.966-1.762 3.2-4.361 3.657V32h10.176v-.869c-2.995 0-4.581-.732-4.581-2.469 0-.503.132-1.097.396-1.783l2.379-6.126h12.643l2.555 6.491c.22.594.353 1.143.353 1.6 0 1.554-1.366 2.286-4.229 2.286v.869h11.894v-.869c-2.203-.229-3.436-1.234-4.097-2.88L16.12-.002h-.705L4.402 27.472zm4.361-7.588 5.903-15.04 5.991 15.04H8.763z"/>
    </symbol>
    <symbol id="icon-l" viewBox="0 0 25 32">
      <path d="M1.498.96c1.982.137 3.128 1.234 3.128 3.154v23.771c0 1.92-1.145 3.017-3.084 3.154l-1.498.091v.869h23.965l1.234-10.423h-.925c-1.277 6.034-4.009 9.554-9.075 9.554h-3.745c-2.203 0-3.612-1.326-3.612-3.337V4.113c0-1.92 1.189-3.063 3.172-3.154l1.806-.091v-.869H.045v.869l1.454.091z"/>
    </symbol>
    <symbol id="icon-e" viewBox="0 0 25 32">
      <path d="M1.553.96c1.982.137 3.128 1.234 3.128 3.154v23.771c0 1.92-1.145 3.017-3.084 3.154l-1.498.091v.869h23.965l1.234-10.423h-.925c-1.278 6.034-4.009 9.554-9.075 9.554h-3.744c-2.203 0-3.612-1.326-3.612-3.337V16.136h5.242c3.48 0 4.626 1.646 4.89 5.257h.925V10.056h-.925c-.264 3.703-1.41 5.211-4.89 5.211H7.942V.821h7.709c4.758 0 6.872 3.154 7.445 7.909h.749V-.001H.101v.869l1.454.091z"/>
    </symbol>
    <symbol id="icon-t" viewBox="0 0 28 32">
      <path d="M.176 8.731h.749C1.894 3.977 4.053.822 8.37.822h4.097v27.063c0 1.92-1.145 3.063-3.084 3.154l-1.938.091v.869h13.348v-.869l-1.938-.091c-1.938-.091-3.128-1.234-3.128-3.154V.822h4.141c4.185 0 6.431 3.109 7.445 7.909h.749L27.533 0H.705L.176 8.731z"/>
    </symbol>
  </defs>
</svg>
